HIERARCHY
ROOT Hips
{
    OFFSET   0.000000   0.000000   0.000000
    CHANNELS 6 Xposition Yposition Zposition Zrotation Xrotation Yrotation
    JOINT Chest
    {
        OFFSET   0.000000   8.007230   0.000000
        CHANNELS 3 Zrotation Xrotation Yrotation
        JOINT Chest2
        {
            OFFSET   0.000000  22.077100   0.000000
            CHANNELS 3 Zrotation Xrotation Yrotation
            JOINT Neck
            {
                OFFSET   0.000000  23.254800  -0.000021
                CHANNELS 3 Zrotation Xrotation Yrotation
                JOINT Head
                {
                    OFFSET   0.000000  14.370000   1.956610
                    CHANNELS 3 Zrotation Xrotation Yrotation
                    End Site
                    {
                        OFFSET   0.000000  19.566000   0.000000
                    }
                }
            }
            JOINT LeftCollar
            {
                OFFSET   3.911900  19.017000  -0.467063
                CHANNELS 3 Zrotation Xrotation Yrotation
                JOINT LeftShoulder
                {
                    OFFSET  10.383700   0.000000   0.000000
                    CHANNELS 3 Zrotation Xrotation Yrotation
                    JOINT LeftElbow
                    {
                        OFFSET  26.662100   0.001529   0.000325
                        CHANNELS 3 Zrotation Xrotation Yrotation
                        JOINT LeftWrist
                        {
                            OFFSET  28.869000  -0.000011  -0.000096
                            CHANNELS 3 Zrotation Xrotation Yrotation
                            JOINT LeftFinger0
                            {
                                OFFSET   2.044650  -2.323460   3.252850
                                CHANNELS 3 Zrotation Xrotation Yrotation
                                JOINT LeftFinger01
                                {
                                    OFFSET   3.088130   0.000000   0.000000
                                    CHANNELS 3 Zrotation Xrotation Yrotation
                                    JOINT LeftFinger02
                                    {
                                        OFFSET   2.639460   0.000000   0.000000
                                        CHANNELS 3 Zrotation Xrotation Yrotation
                                        End Site
                                        {
                                            OFFSET   2.582190   0.000000   0.000000
                                        }
                                    }
                                }
                            }
                            JOINT LeftFinger1
                            {
                                OFFSET   8.364480   0.000000   3.252850
                                CHANNELS 3 Zrotation Xrotation Yrotation
                                JOINT LeftFinger11
                                {
                                    OFFSET   4.646930   0.000000   0.000000
                                    CHANNELS 3 Zrotation Xrotation Yrotation
                                    JOINT LeftFinger12
                                    {
                                        OFFSET   2.323460   0.000000   0.000000
                                        CHANNELS 3 Zrotation Xrotation Yrotation
                                        End Site
                                        {
                                            OFFSET   2.273050   0.000000   0.000000
                                        }
                                    }
                                }
                            }
                            JOINT LeftFinger2
                            {
                                OFFSET   8.364480   0.000016   1.078090
                                CHANNELS 3 Zrotation Xrotation Yrotation
                                JOINT LeftFinger21
                                {
                                    OFFSET   5.111620   0.000000   0.000000
                                    CHANNELS 3 Zrotation Xrotation Yrotation
                                    JOINT LeftFinger22
                                    {
                                        OFFSET   2.788160   0.000017   0.000000
                                        CHANNELS 3 Zrotation Xrotation Yrotation
                                        End Site
                                        {
                                            OFFSET   2.727660   0.000000   0.000000
                                        }
                                    }
                                }
                            }
                            JOINT LeftFinger3
                            {
                                OFFSET   7.899780   0.000015  -1.078090
                                CHANNELS 3 Zrotation Xrotation Yrotation
                                JOINT LeftFinger31
                                {
                                    OFFSET   4.646920   0.000000   0.000000
                                    CHANNELS 3 Zrotation Xrotation Yrotation
                                    JOINT LeftFinger32
                                    {
                                        OFFSET   2.323470   0.000000   0.000000
                                        CHANNELS 3 Zrotation Xrotation Yrotation
                                        End Site
                                        {
                                            OFFSET   2.273050   0.000000   0.000000
                                        }
                                    }
                                }
                            }
                            JOINT LeftFinger4
                            {
                                OFFSET   7.435090   0.000000  -3.252850
                                CHANNELS 3 Zrotation Xrotation Yrotation
                                JOINT LeftFinger41
                                {
                                    OFFSET   3.717550   0.000000   0.000000
                                    CHANNELS 3 Zrotation Xrotation Yrotation
                                    JOINT LeftFinger42
                                    {
                                        OFFSET   1.858760   0.000000   0.000000
                                        CHANNELS 3 Zrotation Xrotation Yrotation
                                        End Site
                                        {
                                            OFFSET   1.818440   0.000000   0.000000
                                        }
                                    }
                                }
                            }
                        }
                    }
                }
            }
            JOINT RightCollar
            {
                OFFSET  -3.911900  19.017000  -0.467062
                CHANNELS 3 Zrotation Xrotation Yrotation
                JOINT RightShoulder
                {
                    OFFSET -10.383700   0.000015   0.000000
                    CHANNELS 3 Zrotation Xrotation Yrotation
                    JOINT RightElbow
                    {
                        OFFSET -26.662100   0.001341   0.000385
                        CHANNELS 3 Zrotation Xrotation Yrotation
                        JOINT RightWrist
                        {
                            OFFSET -28.869000   0.000025  -0.000080
                            CHANNELS 3 Zrotation Xrotation Yrotation
                            JOINT RightFinger0
                            {
                                OFFSET  -2.044650  -2.323490   3.252850
                                CHANNELS 3 Zrotation Xrotation Yrotation
                                JOINT RightFinger01
                                {
                                    OFFSET  -3.088130   0.000000   0.000000
                                    CHANNELS 3 Zrotation Xrotation Yrotation
                                    JOINT RightFinger02
                                    {
                                        OFFSET  -2.639460   0.000000   0.000000
                                        CHANNELS 3 Zrotation Xrotation Yrotation
                                        End Site
                                        {
                                            OFFSET  -2.582190   0.000000   0.000000
                                        }
                                    }
                                }
                            }
                            JOINT RightFinger1
                            {
                                OFFSET  -8.364480   0.000000   3.252850
                                CHANNELS 3 Zrotation Xrotation Yrotation
                                JOINT RightFinger11
                                {
                                    OFFSET  -4.646930   0.000000   0.000000
                                    CHANNELS 3 Zrotation Xrotation Yrotation
                                    JOINT RightFinger12
                                    {
                                        OFFSET  -2.323470   0.000000   0.000000
                                        CHANNELS 3 Zrotation Xrotation Yrotation
                                        End Site
                                        {
                                            OFFSET  -2.273050   0.000000   0.000000
                                        }
                                    }
                                }
                            }
                            JOINT RightFinger2
                            {
                                OFFSET  -8.364480   0.000000   1.078090
                                CHANNELS 3 Zrotation Xrotation Yrotation
                                JOINT RightFinger21
                                {
                                    OFFSET  -5.111610   0.000000   0.000000
                                    CHANNELS 3 Zrotation Xrotation Yrotation
                                    JOINT RightFinger22
                                    {
                                        OFFSET  -2.788160   0.000000   0.000000
                                        CHANNELS 3 Zrotation Xrotation Yrotation
                                        End Site
                                        {
                                            OFFSET  -2.727660   0.000000   0.000000
                                        }
                                    }
                                }
                            }
                            JOINT RightFinger3
                            {
                                OFFSET  -7.899780   0.000000  -1.078090
                                CHANNELS 3 Zrotation Xrotation Yrotation
                                JOINT RightFinger31
                                {
                                    OFFSET  -4.646920   0.000000   0.000000
                                    CHANNELS 3 Zrotation Xrotation Yrotation
                                    JOINT RightFinger32
                                    {
                                        OFFSET  -2.323470   0.000000   0.000000
                                        CHANNELS 3 Zrotation Xrotation Yrotation
                                        End Site
                                        {
                                            OFFSET  -2.273050   0.000000   0.000000
                                        }
                                    }
                                }
                            }
                            JOINT RightFinger4
                            {
                                OFFSET  -7.435090   0.000000  -3.252850
                                CHANNELS 3 Zrotation Xrotation Yrotation
                                JOINT RightFinger41
                                {
                                    OFFSET  -3.717550   0.000000   0.000000
                                    CHANNELS 3 Zrotation Xrotation Yrotation
                                    JOINT RightFinger42
                                    {
                                        OFFSET  -1.858770   0.000000   0.000000
                                        CHANNELS 3 Zrotation Xrotation Yrotation
                                        End Site
                                        {
                                            OFFSET  -1.818440   0.000000   0.000000
                                        }
                                    }
                                }
                            }
                        }
                    }
                }
            }
        }
    }
    JOINT LeftHip
    {
        OFFSET   9.783010   0.000000   0.000000
        CHANNELS 3 Zrotation Xrotation Yrotation
        JOINT LeftKnee
        {
            OFFSET   0.000070 -41.789100   0.000028
            CHANNELS 3 Zrotation Xrotation Yrotation
            JOINT LeftAnkle
            {
                OFFSET   0.000087 -41.133200  -0.000100
                CHANNELS 3 Zrotation Xrotation Yrotation
                JOINT LeftToe
                {
                    OFFSET   0.000000  -6.358960  14.674500
                    CHANNELS 3 Zrotation Xrotation Yrotation
                    End Site
                    {
                        OFFSET   0.000000   0.000000   3.913200
                    }
                }
            }
        }
    }
    JOINT RightHip
    {
        OFFSET  -9.783020   0.000000   0.000000
        CHANNELS 3 Zrotation Xrotation Yrotation
        JOINT RightKnee
        {
            OFFSET   0.000044 -41.789100  -0.000870
            CHANNELS 3 Zrotation Xrotation Yrotation
            JOINT RightAnkle
            {
                OFFSET  -0.000090 -41.133200  -0.000245
                CHANNELS 3 Zrotation Xrotation Yrotation
                JOINT RightToe
                {
                    OFFSET   0.000000  -6.358960  14.674500
                    CHANNELS 3 Zrotation Xrotation Yrotation
                    End Site
                    {
                        OFFSET   0.000000   0.000000   3.913200
                    }
                }
            }
        }
    }
}
MOTION
Frames: 4
Frame Time:   0.016667
  0.018241  90.131700  -0.373988  -0.866342  -2.109780  -3.612600  -0.522667   2.617180   0.047828  -1.049170   5.233810   0.119755   2.428390   0.119940  -0.002732   4.007750   0.242052   0.633886  -5.165210  -0.440444   4.323230 -69.502600  21.587200   2.219480  -5.779830  -8.545130 -15.012300  17.124200  -2.967260   8.141930  37.140300  24.319400 -66.108600 -20.860500   0.012621   0.008918  -5.430240   0.005909   0.004983 -26.112400   8.205240 -16.233800 -22.323800  -0.001387   0.002361 -15.626600  -0.000674  -0.000180 -28.028400   2.743110  -5.136820 -33.053100  -0.001909   0.000905 -22.013300  -0.000070  -0.008515 -26.142900   2.572220  -5.224320 -26.260200  -0.004045  -0.003962 -17.502500   0.003196  -0.006093 -28.068600   1.550840  -2.894930 -42.161600   0.007556  -0.004583 -28.079600   0.014227  -0.002134  12.622100   2.760970   3.465390  66.658800  14.871400  -1.612210   3.842820  -9.267960  11.332700 -17.212800 -16.830400   3.417820 -36.696300  26.924500  57.298200  31.386300   0.003307  -0.013229  10.701800   0.003459  -0.006993  25.841700   1.076170   2.220810  21.160300   0.003660  -0.005352  14.822700   0.001989  -0.004133  24.722300  -0.360923  -0.783767  24.725500   0.003521  -0.005602  16.467200   0.006897  -0.004517  26.466200  -2.678880  -5.363280  26.591600   0.001875  -0.004343  17.710100   0.000771  -0.007204  34.524700  -3.405440  -4.934770  52.012300  -0.003761  -0.005752  34.640200  -0.003362  -0.003777   0.159956   3.444770   3.131890   0.149894   0.161569  18.312300  -4.878350  -3.792520   4.518450  -0.000000   0.000000   0.000000   1.257590   3.040830  -4.902040  -0.081094   1.844750  -7.400360 -10.033600   0.835662   2.285310  -0.000000   0.000000   0.000000
  0.007358  90.131600  -0.375297  -0.865706  -2.105270  -3.604040  -0.514364   2.618070   0.043443  -1.032330   5.235640   0.110613   2.429560   0.113857  -0.002801   4.007290   0.229631   0.679277  -5.176060  -0.440516   4.343600 -69.509100  21.626800   2.196370  -5.780340  -8.569560 -15.018700  17.109400  -3.009750   8.163410  37.129500  24.342500 -66.149200 -20.850500   0.012611   0.008896  -5.425230   0.005884   0.004970 -26.126900   8.219750 -16.252100 -22.338900  -0.001390   0.002353 -15.637200  -0.000679  -0.000178 -28.027100   2.749890  -5.148920 -33.077900  -0.001908   0.000927 -22.029800  -0.000070  -0.008513 -26.152400   2.579150  -5.236370 -26.270100  -0.004042  -0.003950 -17.502500   0.003196  -0.006078 -28.077300   1.550830  -2.894730 -42.174800   0.007555  -0.004577 -28.088400   0.014226  -0.002120  12.632900   2.747480   3.506220  66.617300  14.906200  -1.579060   3.821360  -9.297700  11.302100 -17.210300 -16.816300   3.405960 -36.679900  26.901400  57.318500  31.391500   0.003301  -0.013232  10.701000   0.003452  -0.007003  25.849400   1.081350   2.230710  21.166900   0.003657  -0.005349  14.822700   0.001988  -0.004127  24.722800  -0.347848  -0.755343  24.725700   0.003518  -0.005596  16.467300   0.006897  -0.004511  26.475600  -2.667120  -5.337750  26.600200   0.001872  -0.004340  17.715800   0.000771  -0.007205  34.527500  -3.389210  -4.911760  52.012300  -0.003766  -0.005744  34.640200  -0.003358  -0.003778   0.173373   3.566630   3.124040   0.148164   0.050297  18.312100  -4.895370  -3.802450   4.510280  -0.000000   0.000000  -0.000000   1.257360   3.044760  -4.902070  -0.074966   1.828450  -7.409000 -10.038900   0.843062   2.284920  -0.000000   0.000000   0.000000
 -0.010630  90.131500  -0.378931  -0.864875  -2.100760  -3.591230  -0.499605   2.622090   0.036941  -1.002480   5.243770   0.096960   2.432230   0.097187  -0.002870   4.007060   0.195805   0.741726  -5.198650  -0.440582   4.372840 -69.508900  21.715500   2.150860  -5.780360  -8.616000 -15.035300  17.078100  -3.068500   8.185030  37.120200  24.392500 -66.217400 -20.832000   0.012578   0.008846  -5.415970   0.005832   0.004946 -26.140600   8.240990 -16.281100 -22.353900  -0.001402   0.002336 -15.647700  -0.000689  -0.000174 -28.025000   2.760980  -5.168980 -33.102600  -0.001901   0.000982 -22.046300  -0.000071  -0.008510 -26.161100   2.590220  -5.256450 -26.280000  -0.004033  -0.003922 -17.502500   0.003195  -0.006038 -28.086100   1.550830  -2.894540 -42.188000   0.007552  -0.004559 -28.097200   0.014221  -0.002092  12.657000   2.719180   3.578160  66.535100  14.970300  -1.513330   3.785280  -9.360810  11.248300 -17.197600 -16.771600   3.393550 -36.653100  26.870300  57.351400  31.396800   0.003284  -0.013243  10.698400   0.003439  -0.007013  25.859500   1.091690   2.250980  21.175400   0.003648  -0.005342  14.822700   0.001984  -0.004115  24.723500  -0.328775  -0.713903  24.725900   0.003508  -0.005583  16.467500   0.006896  -0.004493  26.486100  -2.649170  -5.299620  26.608700   0.001865  -0.004331  17.721400   0.000770  -0.007206  34.531600  -3.365720  -4.876690  52.012300  -0.003778  -0.005726  34.640200  -0.003349  -0.003779   0.186824   3.688490   3.116190   0.146432  -0.060976  18.311500  -4.921730  -3.812410   4.497870   0.000000   0.000000  -0.000000   1.257370   3.051300  -4.902170  -0.063015   1.805560  -7.422050 -10.048300   0.855182   2.284540  -0.000000   0.000000   0.000000
 -0.024815  90.131500  -0.384963  -0.864881  -2.107490  -3.582760  -0.485774   2.630800   0.033761  -0.974640   5.261220   0.090018   2.435730   0.067660  -0.002346   4.008110   0.136186   0.764565  -5.226210  -0.439150   4.384950 -69.493900  21.833500   2.100660  -5.781240  -8.671030 -15.064000  17.036400  -3.091010   8.173350  37.157500  24.472500 -66.292100 -20.808000   0.012514   0.008770  -5.403950   0.005767   0.004927 -26.135200   8.253440 -16.306000 -22.353000  -0.001425   0.002312 -15.647100  -0.000702  -0.000169 -28.022900   2.771400  -5.188660 -33.099800  -0.001885   0.001066 -22.044500  -0.000072  -0.008509 -26.158900   2.599870  -5.276510 -26.279000  -0.004016  -0.003883 -17.501800   0.003193  -0.005974 -28.085900   1.550820  -2.894590 -42.187700   0.007550  -0.004531 -28.097000   0.014214  -0.002053  12.689300   2.683580   3.645620  66.443700  15.033200  -1.445810   3.757090  -9.450450  11.205000 -17.166100 -16.694600   3.403280 -36.649200  26.865400  57.379100  31.386200   0.003257  -0.013262  10.692200   0.003426  -0.007008  25.862100   1.103830   2.275700  21.177600   0.003632  -0.005329  14.823100   0.001975  -0.004097  24.723900  -0.319408  -0.693602  24.726000   0.003494  -0.005565  16.467600   0.006900  -0.004461  26.484100  -2.636190  -5.274780  26.605100   0.001852  -0.004316  17.719000   0.000766  -0.007208  34.553200  -3.352900  -4.851430  52.042200  -0.003796  -0.005699  34.660200  -0.003337  -0.003784   0.197494   3.455450   3.117080   0.164392   0.186844  18.310100  -4.938760  -3.812400   4.490450  -0.000000   0.000000   0.000000   1.257780   3.054950  -4.902540  -0.048561   1.795450  -7.430640 -10.056800   0.865334   2.284550  -0.000000   0.000000  -0.000000
